<svg width="12" height="12" viewBox="0 0 12 12" fill="none" xmlns="http://www.w3.org/2000/svg">
<g clip-path="url(#clip0_100_8)">
<path d="M3 1.5V3H1.5V1.5H3ZM0.75 0.75V3.75H3.75V0.75H0.75ZM6.75 2.625V4.125H5.25V2.625H6.75ZM4.5 1.875V4.875H7.5V1.875H4.5ZM3 6V7.5H1.5V6H3ZM0.75 5.25V8.25H3.75V5.25H0.75Z" fill="white"/>
<path d="M8.25 3.75V6H6V8.25H3.75V11.25H11.25V3.75H8.25ZM6.75 6.75H8.25V8.25H6.75V6.75ZM6 10.5H4.5V9H6V10.5ZM8.25 10.5H6.75V9H8.25V10.5ZM10.5 10.5H9V9H10.5V10.5ZM10.5 8.25H9V6.75H10.5V8.25ZM9 6V4.5H10.5V6H9Z" fill="white"/>
</g>
<defs>
<clipPath id="clip0_100_8">
<rect width="12" height="12" fill="white"/>
</clipPath>
</defs>
</svg>

