<svg width="12" height="9" viewBox="0 0 12 9" fill="none" xmlns="http://www.w3.org/2000/svg">
<path d="M9.635 0.665023C8.97 0.355023 8.25 0.130023 7.5 2.29991e-05C7.49342 -0.000187303 7.48688 0.00104674 7.48083 0.00363838C7.47479 0.00623002 7.46938 0.0101163 7.465 0.0150231C7.375 0.180023 7.27 0.395023 7.2 0.560023C6.4045 0.440023 5.5955 0.440023 4.8 0.560023C4.73 0.390023 4.625 0.180023 4.53 0.0150231C4.525 0.0050231 4.51 2.29991e-05 4.495 2.29991e-05C3.745 0.130023 3.03 0.355023 2.36 0.665023C2.355 0.665023 2.35 0.670023 2.345 0.675023C0.984998 2.71002 0.609998 4.69002 0.794998 6.65002C0.794998 6.66002 0.799998 6.67002 0.809998 6.67502C1.71 7.33502 2.575 7.73502 3.43 8.00002C3.445 8.00502 3.46 8.00002 3.465 7.99002C3.665 7.71502 3.845 7.42502 4 7.12002C4.01 7.10002 4 7.08002 3.98 7.07502C3.695 6.96502 3.425 6.83502 3.16 6.68502C3.14 6.67502 3.14 6.64502 3.155 6.63002C3.21 6.59002 3.265 6.54502 3.32 6.50502C3.33 6.49502 3.345 6.49502 3.355 6.50002C5.075 7.28502 6.93 7.28502 8.63 6.50002C8.64 6.49502 8.655 6.49502 8.665 6.50502C8.72 6.55002 8.775 6.59002 8.83 6.63502C8.85 6.65002 8.85 6.68002 8.825 6.69002C8.565 6.84502 8.29 6.97002 8.005 7.08002C7.985 7.08502 7.98 7.11002 7.985 7.12502C8.145 7.43002 8.325 7.72002 8.52 7.99502C8.535 8.00002 8.55 8.00502 8.565 8.00002C9.425 7.73502 10.29 7.33502 11.19 6.67502C11.2 6.67002 11.205 6.66002 11.205 6.65002C11.425 4.38502 10.84 2.42002 9.655 0.675023C9.65 0.670023 9.645 0.665023 9.635 0.665023ZM4.26 5.45502C3.745 5.45502 3.315 4.98002 3.315 4.39502C3.315 3.81002 3.735 3.33502 4.26 3.33502C4.79 3.33502 5.21 3.81502 5.205 4.39502C5.205 4.98002 4.785 5.45502 4.26 5.45502ZM7.745 5.45502C7.23 5.45502 6.8 4.98002 6.8 4.39502C6.8 3.81002 7.22 3.33502 7.745 3.33502C8.275 3.33502 8.695 3.81502 8.69 4.39502C8.69 4.98002 8.275 5.45502 7.745 5.45502Z" fill="white"/>
</svg>

