<svg width="12" height="12" viewBox="0 0 12 12" fill="none" xmlns="http://www.w3.org/2000/svg">
<path d="M1.125 1.3125V10.125H11.4375C11.5867 10.125 11.7298 10.1843 11.8352 10.2898C11.9407 10.3952 12 10.5383 12 10.6875C12 10.8367 11.9407 10.9798 11.8352 11.0852C11.7298 11.1907 11.5867 11.25 11.4375 11.25H0.5625C0.413316 11.25 0.270242 11.1907 0.164752 11.0852C0.0592632 10.9798 0 10.8367 0 10.6875L0 1.3125C0 1.16332 0.0592632 1.02024 0.164752 0.914752C0.270242 0.809263 0.413316 0.75 0.5625 0.75C0.711684 0.75 0.854758 0.809263 0.960248 0.914752C1.06574 1.02024 1.125 1.16332 1.125 1.3125ZM11.835 3.21L7.8975 7.1475C7.79203 7.25284 7.64906 7.31201 7.5 7.31201C7.35094 7.31201 7.20797 7.25284 7.1025 7.1475L5.25 5.295L3.21 7.335C3.1033 7.43431 2.96226 7.48838 2.81653 7.48587C2.67079 7.48335 2.5317 7.42443 2.4285 7.3215C2.32557 7.2183 2.26665 7.07921 2.26413 6.93347C2.26162 6.78773 2.31569 6.6467 2.415 6.54L4.8525 4.1025C4.95797 3.99716 5.10094 3.93799 5.25 3.93799C5.39906 3.93799 5.54203 3.99716 5.6475 4.1025L7.5 5.955L11.04 2.415C11.1467 2.31569 11.2877 2.26162 11.4335 2.26413C11.5792 2.26665 11.7183 2.32557 11.8215 2.4285C11.9244 2.5317 11.9833 2.67079 11.9859 2.81653C11.9884 2.96226 11.9343 3.1033 11.835 3.21Z" fill="white"/>
</svg>

