<svg width="10" height="10" viewBox="0 0 10 10" fill="none" xmlns="http://www.w3.org/2000/svg">
<path d="M9.85002 2.26501C9.85502 2.27501 9.85502 2.29001 9.85502 2.30501V4.45C9.85502 4.5 9.82502 4.56 9.78002 4.585L7.97502 5.625V7.68001C7.97502 7.73501 7.95002 7.785 7.90002 7.815L4.14002 9.98C4.13002 9.985 4.12002 10 4.11002 10H4.00002C4.00002 10 4.00002 9.985 3.98002 9.98L0.220022 7.815C0.19698 7.80084 0.177976 7.78097 0.16484 7.75733C0.151704 7.73368 0.144878 7.70705 0.145022 7.68001V1.25C0.145022 1.225 0.145022 1.21 0.150022 1.2C0.150022 1.195 0.155022 1.19 0.155022 1.185C0.155022 1.175 0.160022 1.17 0.165022 1.16C0.165022 1.155 0.170022 1.15 0.175022 1.145L0.190022 1.13001L0.205022 1.115C0.210022 1.11 0.215022 1.105 0.220022 1.105L2.10002 0.0200049C2.15002 4.88292e-06 2.21002 4.88292e-06 2.25002 0.0200049L4.14002 1.105C4.14502 1.11 4.15002 1.11 4.15502 1.115L4.17002 1.13001L4.18502 1.145C4.19002 1.15 4.19502 1.155 4.19502 1.16C4.20002 1.17 4.20502 1.175 4.20502 1.185C4.20502 1.19 4.21002 1.195 4.21002 1.2C4.21502 1.215 4.21502 1.225 4.21502 1.25V5.25L5.78502 4.36V2.30501C5.78502 2.29001 5.78502 2.27501 5.79002 2.26501L5.79502 2.25001C5.79502 2.25001 5.80002 2.235 5.80502 2.225C5.80502 2.22 5.81002 2.21501 5.81502 2.21001L5.83002 2.195L5.84502 2.18001C5.85002 2.17501 5.85502 2.17001 5.86002 2.17001L7.75002 1.085C7.79002 1.055 7.85002 1.055 7.90002 1.085L9.78002 2.17001C9.78502 2.17001 9.79002 2.17501 9.79502 2.18001L9.81002 2.195L9.82502 2.21001C9.83002 2.21501 9.83002 2.22 9.83502 2.225C9.84002 2.235 9.84002 2.25001 9.84502 2.25001C9.85002 2.25001 9.85002 2.25001 9.85002 2.26501ZM9.54502 4.36V2.57501L7.97502 3.475V5.25L9.54502 4.36ZM7.66502 7.59V5.8L4.21502 7.77001V9.575L7.66502 7.59ZM0.455022 1.5V7.59L3.90502 9.575V7.77001L2.10502 6.75H2.10002C2.09502 6.75 2.09002 6.75 2.08502 6.735C2.08002 6.735 2.07502 6.73 2.07002 6.725L2.05502 6.71C2.05002 6.705 2.05002 6.7 2.04502 6.695C2.04002 6.685 2.04002 6.68 2.03502 6.675C2.03502 6.665 2.03002 6.66 2.03002 6.655C2.02502 6.65 2.02502 6.64 2.02502 6.635V2.41001L0.455022 1.5ZM2.18002 0.340005L0.615022 1.25L2.18002 2.14001L3.75002 1.25L2.18002 0.340005ZM3.90502 5.44V1.5L2.33502 2.41001V6.345L3.90502 5.44ZM7.82002 1.4L6.25002 2.30501L7.82002 3.205L9.38502 2.30501L7.82002 1.4ZM7.66502 3.475L6.09502 2.57501V4.36L7.66502 5.25V3.475ZM4.06002 7.5L7.50002 5.53L5.94002 4.63L2.50002 6.615L4.06002 7.5Z" fill="white"/>
</svg>

