<svg width="10" height="10" viewBox="0 0 10 10" fill="none" xmlns="http://www.w3.org/2000/svg">
<path d="M8.5 0.5C8.76522 0.5 9.01957 0.605357 9.20711 0.792893C9.39464 0.98043 9.5 1.23478 9.5 1.5V8.5C9.5 8.76522 9.39464 9.01957 9.20711 9.20711C9.01957 9.39464 8.76522 9.5 8.5 9.5H1.5C1.23478 9.5 0.98043 9.39464 0.792893 9.20711C0.605357 9.01957 0.5 8.76522 0.5 8.5V1.5C0.5 1.23478 0.605357 0.98043 0.792893 0.792893C0.98043 0.605357 1.23478 0.5 1.5 0.5H8.5ZM8.25 8.25V5.6C8.25 5.1677 8.07827 4.7531 7.77258 4.44742C7.4669 4.14173 7.0523 3.97 6.62 3.97C6.195 3.97 5.7 4.23 5.46 4.62V4.065H4.065V8.25H5.46V5.785C5.46 5.4 5.77 5.085 6.155 5.085C6.34065 5.085 6.5187 5.15875 6.64997 5.29003C6.78125 5.4213 6.855 5.59935 6.855 5.785V8.25H8.25ZM2.44 3.28C2.66278 3.28 2.87644 3.1915 3.03397 3.03397C3.1915 2.87644 3.28 2.66278 3.28 2.44C3.28 1.975 2.905 1.595 2.44 1.595C2.21589 1.595 2.00096 1.68403 1.84249 1.84249C1.68403 2.00096 1.595 2.21589 1.595 2.44C1.595 2.905 1.975 3.28 2.44 3.28ZM3.135 8.25V4.065H1.75V8.25H3.135Z" fill="white"/>
</svg>

