<svg width="10" height="10" viewBox="0 0 10 10" fill="none" xmlns="http://www.w3.org/2000/svg">
<path d="M5 0C2.18 0 0 2.065 0 4.85C0 6.305 0.595 7.57 1.57 8.435C1.65 8.5 1.7 8.61 1.705 8.72L1.73 9.61C1.75 9.895 2.035 10.08 2.295 9.965L3.285 9.53C3.37 9.5 3.465 9.485 3.55 9.5C4 9.635 4.5 9.7 5 9.7C7.82 9.7 10 7.635 10 4.85C10 2.065 7.82 0 5 0ZM8 3.73L6.535 6.065C6.3 6.43 5.8 6.525 5.45 6.25L4.28 5.385C4.22807 5.34605 4.16491 5.325 4.1 5.325C4.03509 5.325 3.97193 5.34605 3.92 5.385L2.34 6.585C2.13 6.75 1.855 6.5 2 6.27L3.465 3.935C3.7 3.57 4.2 3.475 4.55 3.735L5.72 4.615C5.77193 4.65395 5.83509 4.675 5.9 4.675C5.96491 4.675 6.02807 4.65395 6.08 4.615L7.66 3.415C7.87 3.25 8.145 3.5 8 3.73Z" fill="white"/>
</svg>

