<svg width="12" height="4" viewBox="0 0 12 4" fill="none" xmlns="http://www.w3.org/2000/svg">
<path d="M7.325 0.998478C7.32043 0.998411 7.31589 0.999255 7.31164 1.00096C7.3074 1.00266 7.30354 1.00519 7.30028 1.0084C7.29702 1.01161 7.29444 1.01544 7.29267 1.01966C7.29091 1.02388 7.29 1.0284 7.29 1.03298V1.74048C7.2285 1.65198 7.08 1.55548 6.8875 1.55548C6.515 1.55548 6.2295 1.88498 6.2295 2.27798C6.2295 2.67148 6.515 3.00148 6.8875 3.00148C7.0805 3.00148 7.2285 2.90448 7.2905 2.81548V2.92598C7.2905 2.95098 7.3105 2.97098 7.3355 2.97098H7.639C7.64828 2.97098 7.65718 2.96729 7.66375 2.96073C7.67031 2.95416 7.674 2.94526 7.674 2.93598V1.03298C7.674 1.0284 7.67309 1.02388 7.67133 1.01966C7.66956 1.01544 7.66698 1.01161 7.66372 1.0084C7.66046 1.00519 7.6566 1.00266 7.65236 1.00096C7.64811 0.999255 7.64357 0.998411 7.639 0.998478H7.325ZM5.3685 1.20048C5.3593 1.20061 5.35053 1.20435 5.34407 1.2109C5.33762 1.21745 5.334 1.22628 5.334 1.23548C5.334 1.62498 5.366 1.58548 5.082 1.58548C5.07007 1.58548 5.05862 1.59022 5.05018 1.59866C5.04174 1.6071 5.037 1.61854 5.037 1.63048V1.87348C5.037 1.89848 5.057 1.91798 5.082 1.91798H5.334V2.48598C5.334 2.82398 5.572 2.98748 5.869 2.98748C5.9605 2.98748 6.029 2.97898 6.086 2.96448C6.0934 2.96251 6.09995 2.95817 6.10465 2.95211C6.10935 2.94606 6.11193 2.93864 6.112 2.93098V2.66798C6.11184 2.66279 6.11053 2.65771 6.10817 2.65309C6.1058 2.64847 6.10244 2.64444 6.09832 2.64128C6.09421 2.63812 6.08944 2.63592 6.08437 2.63483C6.0793 2.63374 6.07405 2.63379 6.069 2.63498C6.03174 2.6432 5.99365 2.64706 5.9555 2.64648C5.7905 2.64648 5.7175 2.57998 5.7175 2.41148V1.91798H6.0215C6.0307 1.91798 6.03952 1.91436 6.04607 1.9079C6.05262 1.90145 6.05637 1.89267 6.0565 1.88348V1.61998C6.0565 1.6154 6.05559 1.61088 6.05383 1.60666C6.05206 1.60244 6.04948 1.59861 6.04622 1.5954C6.04296 1.59219 6.0391 1.58966 6.03486 1.58796C6.03061 1.58626 6.02607 1.58541 6.0215 1.58548H5.7175V1.23498C5.71757 1.23041 5.71672 1.22587 5.71502 1.22162C5.71331 1.21738 5.71078 1.21352 5.70757 1.21026C5.70436 1.207 5.70054 1.20442 5.69632 1.20265C5.6921 1.20089 5.68757 1.19998 5.683 1.19998L5.3685 1.20048ZM1.1705 1.53848C0.9125 1.53848 0.693 1.65648 0.57 1.83748C0.56 1.85248 0.5425 1.88498 0.519 1.88498C0.406 1.88598 0.399 1.74698 0.3955 1.62298C0.394994 1.61413 0.391153 1.60581 0.38475 1.59968C0.378347 1.59356 0.36986 1.59009 0.361 1.58998L0.0345 1.58798C0.0253043 1.58811 0.0165299 1.59185 0.0100739 1.5984C0.00361784 1.60495 -9.38293e-07 1.61378 1.82489e-10 1.62298C0.007 1.92598 0.063 2.13198 0.43 2.21348C0.45 2.21848 0.464 2.23598 0.464 2.25698V2.93698C0.464 2.95548 0.479 2.97098 0.4985 2.97098H0.8155C0.824696 2.97085 0.83347 2.9671 0.839926 2.96055C0.846382 2.954 0.850001 2.94517 0.85 2.93598V2.23498C0.85 2.07898 0.9605 1.90148 1.17 1.90148C1.37 1.90148 1.491 2.07898 1.491 2.23498V2.93698C1.491 2.95598 1.506 2.97148 1.5255 2.97148H1.8425C1.8517 2.97135 1.86047 2.9676 1.86693 2.96105C1.87338 2.9545 1.877 2.94567 1.877 2.93648V2.18248C1.877 1.82248 1.569 1.53898 1.1705 1.53898V1.53848ZM2.774 1.55498C2.3485 1.55498 2.038 1.86798 2.038 2.27798C2.038 2.71598 2.363 2.99348 2.7795 3.00148C3.107 3.00748 3.3245 2.81998 3.3765 2.75448C3.37928 2.75084 3.3813 2.74667 3.38244 2.74223C3.38357 2.73778 3.38379 2.73316 3.38309 2.72863C3.38239 2.7241 3.38078 2.71976 3.37836 2.71586C3.37594 2.71197 3.37275 2.70861 3.369 2.70598L3.1515 2.53598C3.128 2.51248 3.1095 2.52548 3.0955 2.53648C3.0605 2.56498 2.994 2.64648 2.7825 2.65498C2.5975 2.66248 2.4325 2.55248 2.41 2.36698H3.425C3.43378 2.36687 3.4422 2.36348 3.44859 2.35746C3.45498 2.35144 3.45887 2.34323 3.4595 2.33448C3.4625 2.29348 3.4625 2.26348 3.4625 2.23648C3.4625 1.78798 3.1405 1.55498 2.774 1.55498ZM8.6 1.55498C8.194 1.55498 7.864 1.87348 7.864 2.27798C7.864 2.68298 8.194 3.00148 8.6 3.00148C9.006 3.00148 9.336 2.68248 9.336 2.27798C9.336 1.87348 9.006 1.55498 8.6 1.55498ZM10.2145 1.55498C9.8085 1.55498 9.4785 1.87348 9.4785 2.27798C9.4785 2.68298 9.8085 3.00148 10.2145 3.00148C10.6205 3.00148 10.9505 2.68248 10.9505 2.27798C10.9505 1.87348 10.6205 1.55498 10.2145 1.55498ZM11.8715 1.56898C11.7963 1.56895 11.7229 1.59167 11.6609 1.63415C11.5989 1.67663 11.5511 1.73688 11.524 1.80698V1.61998C11.524 1.61083 11.5204 1.60205 11.5139 1.59558C11.5074 1.58911 11.4987 1.58548 11.4895 1.58548H11.1755C11.1709 1.58541 11.1663 1.58627 11.162 1.588C11.1577 1.58974 11.1539 1.59232 11.1506 1.59558C11.1473 1.59884 11.1448 1.60273 11.143 1.607C11.1413 1.61128 11.1404 1.61586 11.1405 1.62048V2.93648C11.1406 2.94567 11.1444 2.95445 11.1509 2.9609C11.1575 2.96736 11.1663 2.97098 11.1755 2.97098H11.4895C11.4988 2.97098 11.5077 2.96729 11.5142 2.96073C11.5208 2.95416 11.5245 2.94526 11.5245 2.93598V2.30848C11.5245 2.08148 11.6445 1.93998 11.8265 1.93998C11.8725 1.93998 11.914 1.94648 11.9565 1.95748C11.9615 1.95884 11.9668 1.95904 11.972 1.95806C11.9771 1.95708 11.982 1.95494 11.9862 1.95181C11.9903 1.94868 11.9938 1.94464 11.9962 1.93999C11.9986 1.93534 11.9999 1.93021 12 1.92498V1.61298C11.9999 1.60496 11.9971 1.59721 11.992 1.59102C11.9869 1.58483 11.9799 1.58058 11.972 1.57898C11.939 1.57204 11.9053 1.56868 11.8715 1.56898ZM3.5385 1.58548C3.53217 1.58538 3.52594 1.58702 3.52048 1.59023C3.51503 1.59343 3.51056 1.59808 3.50756 1.60365C3.50457 1.60923 3.50317 1.61552 3.50351 1.62184C3.50385 1.62815 3.50592 1.63426 3.5095 1.63948L3.9495 2.29198L3.5 2.91598C3.49638 2.92118 3.49424 2.92726 3.4938 2.93358C3.49336 2.9399 3.49465 2.94622 3.49753 2.95186C3.5004 2.95751 3.50475 2.96227 3.51012 2.96564C3.51549 2.969 3.52167 2.97085 3.528 2.97098H3.9005C3.90604 2.97095 3.91148 2.96956 3.91636 2.96695C3.92124 2.96433 3.92541 2.96057 3.9285 2.95598L4.2105 2.56098L4.492 2.95598C4.49512 2.96054 4.4993 2.96428 4.50417 2.96689C4.50904 2.9695 4.51447 2.9709 4.52 2.97098H4.89C4.89645 2.97112 4.90281 2.96945 4.90836 2.96616C4.91391 2.96287 4.91842 2.95809 4.92139 2.95236C4.92436 2.94663 4.92566 2.94019 4.92515 2.93376C4.92464 2.92732 4.92233 2.92117 4.9185 2.91598L4.469 2.29198L4.909 1.63948C4.91258 1.63426 4.91465 1.62815 4.91499 1.62184C4.91533 1.61552 4.91393 1.60923 4.91094 1.60365C4.90794 1.59808 4.90347 1.59343 4.89802 1.59023C4.89256 1.58702 4.88633 1.58538 4.88 1.58548H4.511C4.50531 1.58543 4.4997 1.58678 4.49464 1.58939C4.48959 1.592 4.48525 1.59581 4.482 1.60048L4.208 2.00948L3.9335 1.60098C3.9303 1.59638 3.92604 1.59262 3.92108 1.59001C3.91612 1.58739 3.9106 1.58601 3.905 1.58598L3.5385 1.58548ZM2.7625 1.86798C2.9055 1.86798 3.0455 1.94548 3.079 2.10898H2.424C2.4605 1.93998 2.62 1.86798 2.7625 1.86798ZM6.9685 1.90148C7.1785 1.90148 7.321 2.06198 7.321 2.27798C7.321 2.49448 7.1785 2.65498 6.9685 2.65498C6.7585 2.65498 6.616 2.49448 6.616 2.27798C6.616 2.06198 6.7585 1.90148 6.9685 1.90148ZM8.6 1.90948C8.8015 1.90948 8.947 2.06448 8.947 2.27798C8.947 2.49148 8.8015 2.64648 8.6 2.64648C8.3985 2.64648 8.25 2.49148 8.25 2.27798C8.25 2.06498 8.3985 1.90948 8.6 1.90948ZM10.2145 1.90948C10.416 1.90948 10.5615 2.06448 10.5615 2.27798C10.5615 2.49148 10.416 2.64648 10.2145 2.64648C10.013 2.64648 9.8645 2.49148 9.8645 2.27798C9.8645 2.06498 10.013 1.90948 10.2145 1.90948Z" fill="white"/>
</svg>

