<svg width="10" height="10" viewBox="0 0 10 10" fill="none" xmlns="http://www.w3.org/2000/svg">
<path d="M6.62374 7.05501L7.46374 6.21501C7.57688 6.10328 7.72002 6.0268 7.87579 5.99484C8.03155 5.96289 8.19325 5.97685 8.34124 6.03501L9.36499 6.44376C9.51454 6.50447 9.64278 6.60808 9.73354 6.74155C9.82429 6.87502 9.87351 7.03237 9.87499 7.19376V9.06876C9.87412 9.17856 9.85104 9.28704 9.80714 9.38767C9.76324 9.48831 9.69943 9.57902 9.61955 9.65435C9.53967 9.72968 9.44537 9.78806 9.34233 9.82598C9.23929 9.8639 9.12964 9.88058 9.01999 9.87501C1.84624 9.42876 0.398739 3.35376 0.124989 1.02877C0.112282 0.914591 0.123892 0.799021 0.159057 0.689656C0.194222 0.580292 0.252145 0.479612 0.329014 0.394241C0.405884 0.30887 0.499958 0.240742 0.605048 0.194339C0.710138 0.147936 0.823862 0.12431 0.938739 0.125015H2.74999C2.91162 0.125494 3.06941 0.174316 3.20306 0.265201C3.33672 0.356087 3.44013 0.48488 3.49999 0.635015L3.90874 1.65877C3.96883 1.80617 3.98417 1.96801 3.95282 2.12407C3.92147 2.28013 3.84484 2.4235 3.73249 2.53627L2.89249 3.37627C2.89249 3.37627 3.37624 6.65001 6.62374 7.05501Z" fill="white"/>
</svg>

