<svg width="12" height="10" viewBox="0 0 12 10" fill="none" xmlns="http://www.w3.org/2000/svg">
<path d="M2.7315 0.737976C3.345 1.61248 3.7485 2.69948 3.84 3.89898C3.91092 4.78846 3.79651 5.68298 3.504 6.52598C3.68803 6.30632 3.91421 6.12577 4.16918 5.99498C4.42415 5.86419 4.70274 5.78581 4.9885 5.76448C5.0135 5.76248 5.038 5.76148 5.0625 5.76048C5.1025 5.51498 5.2975 4.03548 4.574 2.42048C4.04 1.22748 3.074 0.840476 2.7315 0.737976ZM3.62 0.756476C3.62 0.756476 4.823 1.28948 5.283 3.52998C5.5865 5.00748 5.3075 5.94798 5.082 6.41648C5.69584 5.8347 6.49162 5.48255 7.335 5.41948C7.765 5.38698 8.1825 5.42948 8.576 5.53598C8.526 5.16548 8.2795 3.82898 7.21 2.57598C5.5785 0.664476 3.62 0.756476 3.62 0.756476ZM11.0285 5.60698L2.0685 7.13148C2.30062 7.21181 2.50065 7.36484 2.63891 7.56786C2.77717 7.77088 2.84628 8.01307 2.836 8.25848C2.8321 8.36206 2.81427 8.46465 2.783 8.56348C2.8105 8.54998 4.1275 7.92598 5.954 7.54648C7.573 7.20998 8.8155 7.36648 9.0965 7.40998C9.27322 6.99022 9.53671 6.61259 9.86967 6.30185C10.2026 5.99112 10.5976 5.75431 11.0285 5.60698ZM7.922 7.64598C6.763 7.64598 5.6015 7.89348 4.615 8.22898C3.181 8.71698 3.1395 8.90298 1.84 8.75048C0.922 8.64298 0 8.19298 0 8.19298C0 8.19298 1.203 9.17798 2.457 9.25648C3.45 9.31898 4.2095 8.84548 5.1145 8.54948C6.445 8.11398 7.37 8.06448 8.241 8.06198C9.6805 8.05798 12 8.67648 12 8.67648C12 8.67648 10.945 8.15448 9.4835 7.81648C8.97111 7.70092 8.44725 7.64339 7.922 7.64598Z" fill="white"/>
</svg>

