<svg width="10" height="10" viewBox="0 0 10 10" fill="none" xmlns="http://www.w3.org/2000/svg">
<path d="M3.52 9.77C4 9.915 4.485 10 5 10C6.32608 10 7.59785 9.47322 8.53553 8.53553C9.47322 7.59785 10 6.32608 10 5C10 4.34339 9.87067 3.69321 9.6194 3.08658C9.36812 2.47995 8.99983 1.92876 8.53553 1.46447C8.07124 1.00017 7.52005 0.631876 6.91342 0.380602C6.30679 0.129329 5.65661 0 5 0C4.34339 0 3.69321 0.129329 3.08658 0.380602C2.47995 0.631876 1.92876 1.00017 1.46447 1.46447C0.526784 2.40215 0 3.67392 0 5C0 7.125 1.335 8.95 3.22 9.67C3.175 9.28 3.13 8.635 3.22 8.19L3.795 5.72C3.795 5.72 3.65 5.43 3.65 4.97C3.65 4.28 4.08 3.765 4.57 3.765C5 3.765 5.2 4.08 5.2 4.485C5.2 4.915 4.915 5.53 4.77 6.12C4.685 6.61 5.03 7.04 5.53 7.04C6.42 7.04 7.11 6.09 7.11 4.75C7.11 3.55 6.25 2.73 5.015 2.73C3.605 2.73 2.775 3.78 2.775 4.885C2.775 5.315 2.915 5.75 3.145 6.035C3.19 6.065 3.19 6.105 3.175 6.18L3.03 6.725C3.03 6.81 2.975 6.84 2.89 6.78C2.25 6.5 1.88 5.59 1.88 4.855C1.88 3.275 3 1.84 5.16 1.84C6.88 1.84 8.22 3.075 8.22 4.715C8.22 6.435 7.155 7.815 5.63 7.815C5.145 7.815 4.67 7.555 4.5 7.25L4.165 8.435C4.05 8.865 3.735 9.44 3.52 9.785V9.77Z" fill="white"/>
</svg>

