<svg width="12" height="12" viewBox="0 0 12 12" fill="none" xmlns="http://www.w3.org/2000/svg">
<path d="M2.2044 0.513306L0.445251 2.27252L1.44667 2.82565L0.814322 3.45734L3.33631 4.97792C2.38843 6.62201 2.61631 8.75299 4.02069 10.1566C5.69893 11.8349 8.42078 11.8344 10.0993 10.1566C11.7779 8.4788 11.7785 5.75848 10.1002 4.08115C8.69595 2.67776 6.56359 2.4506 4.91856 3.39731L3.39725 0.876939L3.19944 1.07456L2.76378 1.5098L2.2044 0.513306ZM3.31121 1.58201L4.77224 4.00252L4.96203 3.87952C5.9982 3.20773 7.28267 3.08161 8.41124 3.50269C8.38405 3.50208 8.35667 3.50175 8.32913 3.50175C7.41535 3.50175 6.67459 3.84879 6.67459 4.2769C6.67459 4.7051 7.41535 5.05209 8.32913 5.05209C9.06812 5.05209 9.69378 4.82513 9.90617 4.51186C10.2798 4.91827 10.5505 5.3843 10.7183 5.87717C10.5364 5.79778 10.2898 5.71999 9.99402 5.65303C9.25848 5.48663 8.22338 5.38081 7.08062 5.38081C5.93788 5.38081 4.90281 5.4866 4.16724 5.65303C3.84592 5.72574 3.58138 5.81124 3.39631 5.89767C3.49938 5.5889 3.64128 5.29449 3.81861 5.02151L3.94196 4.83157L1.52017 3.37141L1.84581 3.0461L2.94589 3.65367L3.60013 2.99941L2.98653 1.90641L3.31126 1.58199L3.31121 1.58201ZM3.28574 6.29967C3.29703 6.30624 3.30875 6.3128 3.32103 6.31936C3.50595 6.41827 3.79939 6.51827 4.1672 6.60148C4.90274 6.76788 5.93783 6.8737 7.08057 6.8737C8.22334 6.8737 9.25843 6.76791 9.99397 6.60148C10.3616 6.51827 10.655 6.41836 10.8399 6.31945C10.8689 6.45602 10.8903 6.59406 10.9043 6.73296C10.6832 6.8332 10.4073 6.91795 10.0822 6.99152C9.30399 7.16761 8.24778 7.27364 7.0806 7.27364C5.91336 7.27364 4.85717 7.16761 4.07895 6.99152C3.73513 6.91371 3.44614 6.82348 3.21903 6.71552C3.23366 6.57578 3.25592 6.43694 3.28571 6.29963L3.28574 6.29967Z" fill="white"/>
</svg>

