<svg width="10" height="10" viewBox="0 0 10 10" fill="none" xmlns="http://www.w3.org/2000/svg">
<path d="M4.37496 5.52C4.37496 5.235 4.13996 5 3.85496 5C3.56996 5 3.33496 5.235 3.33496 5.52C3.33496 5.65791 3.38975 5.79018 3.48727 5.8877C3.58478 5.98521 3.71705 6.04 3.85496 6.04C3.99287 6.04 4.12514 5.98521 4.22266 5.8877C4.32018 5.79018 4.37496 5.65791 4.37496 5.52ZM6.04496 6.705C5.81996 6.93 5.33996 7.01 4.99996 7.01C4.65996 7.01 4.17996 6.93 3.95496 6.705C3.9428 6.69198 3.92809 6.6816 3.91175 6.6745C3.8954 6.6674 3.87778 6.66374 3.85996 6.66374C3.84214 6.66374 3.82452 6.6674 3.80817 6.6745C3.79183 6.6816 3.77712 6.69198 3.76496 6.705C3.75194 6.71716 3.74156 6.73187 3.73446 6.74821C3.72736 6.76456 3.7237 6.78218 3.7237 6.8C3.7237 6.81782 3.72736 6.83544 3.73446 6.85179C3.74156 6.86813 3.75194 6.88284 3.76496 6.895C4.11996 7.25 4.79996 7.28 4.99996 7.28C5.19996 7.28 5.87996 7.25 6.23496 6.895C6.24798 6.88284 6.25836 6.86813 6.26546 6.85179C6.27256 6.83544 6.27622 6.81782 6.27622 6.8C6.27622 6.78218 6.27256 6.76456 6.26546 6.74821C6.25836 6.73187 6.24798 6.71716 6.23496 6.705C6.18496 6.655 6.09996 6.655 6.04496 6.705ZM6.14496 5C5.85996 5 5.62496 5.235 5.62496 5.52C5.62496 5.805 5.85996 6.04 6.14496 6.04C6.42996 6.04 6.66496 5.805 6.66496 5.52C6.66496 5.235 6.43496 5 6.14496 5Z" fill="white"/>
<path d="M5 0C2.24 0 0 2.24 0 5C0 7.76 2.24 10 5 10C7.76 10 10 7.76 10 5C10 2.24 7.76 0 5 0ZM7.9 5.665C7.91 5.735 7.915 5.81 7.915 5.885C7.915 7.005 6.61 7.915 5 7.915C3.39 7.915 2.085 7.005 2.085 5.885C2.085 5.81 2.09 5.735 2.1 5.665C1.845 5.55 1.67 5.295 1.67 5C1.66926 4.85662 1.7109 4.71622 1.7897 4.59644C1.86849 4.47665 1.98093 4.38282 2.11288 4.32672C2.24483 4.27063 2.39041 4.25478 2.53135 4.28116C2.67228 4.30754 2.80227 4.37498 2.905 4.475C3.41 4.11 4.11 3.88 4.885 3.855L5.255 2.11C5.26 2.075 5.28 2.045 5.31 2.03C5.34 2.01 5.375 2.005 5.41 2.01L6.62 2.27C6.66104 2.18679 6.72359 2.11607 6.80117 2.06519C6.87875 2.0143 6.96853 1.9851 7.0612 1.98061C7.15387 1.97612 7.24606 1.99651 7.3282 2.03965C7.41033 2.0828 7.47943 2.14714 7.52832 2.22599C7.57721 2.30485 7.60411 2.39534 7.60623 2.4881C7.60836 2.58086 7.58562 2.67249 7.54039 2.7535C7.49516 2.83451 7.42909 2.90194 7.34901 2.9488C7.26893 2.99566 7.17778 3.02024 7.085 3.02C6.805 3.02 6.58 2.8 6.565 2.525L5.48 2.295L5.15 3.855C5.915 3.88 6.6 4.115 7.1 4.475C7.17665 4.40181 7.26837 4.34624 7.36873 4.3122C7.4691 4.27816 7.57569 4.26645 7.68105 4.27791C7.78641 4.28936 7.888 4.3237 7.97871 4.37852C8.06941 4.43333 8.14704 4.50731 8.20617 4.59526C8.2653 4.68322 8.3045 4.78303 8.32102 4.88772C8.33755 4.9924 8.331 5.09944 8.30184 5.20133C8.27268 5.30322 8.2216 5.39751 8.15219 5.4776C8.08278 5.55769 7.99671 5.62165 7.9 5.665Z" fill="white"/>
</svg>

