<svg width="10" height="10" viewBox="0 0 10 10" fill="none" xmlns="http://www.w3.org/2000/svg">
<path d="M6.75 6L9.25 8.5L8.5 9.25L6 6.75V6.355L5.865 6.215C5.27701 6.72194 4.52635 7.00055 3.75 7C2.88805 7 2.0614 6.65759 1.4519 6.0481C0.84241 5.4386 0.5 4.61195 0.5 3.75C0.5 2.88805 0.84241 2.0614 1.4519 1.4519C2.0614 0.84241 2.88805 0.5 3.75 0.5C4.61195 0.5 5.4386 0.84241 6.0481 1.4519C6.65759 2.0614 7 2.88805 7 3.75C7 4.555 6.705 5.295 6.215 5.865L6.355 6H6.75ZM3.75 1.25L3.475 1.265C3.355 1.525 3.17 1.965 3.035 2.5H4.465C4.33 1.965 4.145 1.525 4.025 1.265C3.935 1.25 3.845 1.25 3.75 1.25ZM5.915 2.5C5.61765 1.9798 5.14145 1.58533 4.575 1.39C4.695 1.655 4.85 2.04 4.965 2.5H5.915ZM1.585 2.5H2.535C2.65 2.04 2.805 1.655 2.925 1.39C2.35855 1.58533 1.88235 1.9798 1.585 2.5ZM1.25 3.75C1.25 4 1.29 4.265 1.365 4.5H2.435L2.375 3.75L2.435 3H1.365C1.29 3.235 1.25 3.5 1.25 3.75ZM6.135 4.5C6.21 4.265 6.25 4 6.25 3.75C6.25 3.5 6.21 3.235 6.135 3H5.065C5.14462 3.49683 5.14462 4.00317 5.065 4.5H6.135ZM2.935 3L2.875 3.75L2.935 4.5H4.565C4.64462 4.00317 4.64462 3.49683 4.565 3H2.935ZM3.75 6.25C3.84 6.25 3.93 6.25 4.015 6.235C4.14 5.975 4.33 5.535 4.465 5H3.035C3.17 5.535 3.36 5.975 3.485 6.235L3.75 6.25ZM5.915 5H4.965C4.85 5.46 4.695 5.845 4.575 6.11C5.14145 5.91467 5.61765 5.5202 5.915 5ZM1.585 5C1.88235 5.5202 2.35855 5.91467 2.925 6.11C2.805 5.845 2.65 5.46 2.535 5H1.585Z" fill="white"/>
</svg>

