<svg width="12" height="10" viewBox="0 0 12 10" fill="none" xmlns="http://www.w3.org/2000/svg">
<path d="M10.125 0.6875H1.875C1.62636 0.6875 1.3879 0.786272 1.21209 0.962087C1.03627 1.1379 0.9375 1.37636 0.9375 1.625V6.5C0.9375 6.74864 1.03627 6.9871 1.21209 7.16291C1.3879 7.33873 1.62636 7.4375 1.875 7.4375H10.125C10.3736 7.4375 10.6121 7.33873 10.7879 7.16291C10.9637 6.9871 11.0625 6.74864 11.0625 6.5V1.625C11.0625 1.37636 10.9637 1.1379 10.7879 0.962087C10.6121 0.786272 10.3736 0.6875 10.125 0.6875ZM9.9375 6.3125H2.0625V1.8125H9.9375V6.3125ZM11.0625 8.75C11.0625 8.89918 11.0032 9.04226 10.8977 9.14775C10.7923 9.25324 10.6492 9.3125 10.5 9.3125H1.5C1.35082 9.3125 1.20774 9.25324 1.10225 9.14775C0.996763 9.04226 0.9375 8.89918 0.9375 8.75C0.9375 8.60082 0.996763 8.45774 1.10225 8.35225C1.20774 8.24676 1.35082 8.1875 1.5 8.1875H10.5C10.6492 8.1875 10.7923 8.24676 10.8977 8.35225C11.0032 8.45774 11.0625 8.60082 11.0625 8.75ZM4.875 5V3.125C4.87497 3.02457 4.90182 2.92597 4.95277 2.83943C5.00372 2.75289 5.07691 2.68157 5.16474 2.63287C5.25256 2.58417 5.35183 2.55988 5.45222 2.5625C5.55261 2.56513 5.65046 2.59459 5.73563 2.64781L7.23563 3.58531C7.31661 3.63586 7.3834 3.70618 7.4297 3.78966C7.47601 3.87314 7.5003 3.96704 7.5003 4.0625C7.5003 4.15796 7.47601 4.25186 7.4297 4.33534C7.3834 4.41882 7.31661 4.48914 7.23563 4.53969L5.73563 5.47719C5.65046 5.53041 5.55261 5.55987 5.45222 5.5625C5.35183 5.56512 5.25256 5.54083 5.16474 5.49213C5.07691 5.44343 5.00372 5.37211 4.95277 5.28557C4.90182 5.19903 4.87497 5.10043 4.875 5Z" fill="white"/>
</svg>

