<svg width="12" height="12" viewBox="0 0 12 12" fill="none" xmlns="http://www.w3.org/2000/svg">
<path d="M6 0.75C2.68594 0.75 0 2.93203 0 5.625C0 6.7875 0.501563 7.85156 1.33594 8.68828C1.04297 9.86953 0.0632813 10.9219 0.0515625 10.9336C0 10.9875 -0.0140625 11.0672 0.0164062 11.1375C0.046875 11.2078 0.1125 11.25 0.1875 11.25C1.74141 11.25 2.90625 10.5047 3.48281 10.0453C4.24922 10.3336 5.1 10.5 6 10.5C9.31406 10.5 12 8.31797 12 5.625C12 2.93203 9.31406 0.75 6 0.75ZM3.00469 7.125H2.71875C2.61562 7.125 2.53125 7.04063 2.53125 6.9375V6.5625C2.53125 6.45937 2.61562 6.375 2.71875 6.375H3.00703C3.14766 6.375 3.25078 6.29297 3.25078 6.22031C3.25078 6.18984 3.23203 6.15703 3.20156 6.13125L2.68828 5.69063C2.48906 5.52188 2.37656 5.28047 2.37656 5.03203C2.37656 4.53281 2.82188 4.12734 3.37031 4.12734H3.65625C3.75938 4.12734 3.84375 4.21172 3.84375 4.31484V4.68984C3.84375 4.79297 3.75938 4.87734 3.65625 4.87734H3.36797C3.22734 4.87734 3.12422 4.95937 3.12422 5.03203C3.12422 5.0625 3.14297 5.09531 3.17344 5.12109L3.68672 5.56172C3.88594 5.73047 3.99844 5.97187 3.99844 6.22031C4.00078 6.71953 3.55312 7.125 3.00469 7.125ZM7.5 6.9375C7.5 7.04063 7.41563 7.125 7.3125 7.125H6.9375C6.83437 7.125 6.75 7.04063 6.75 6.9375V5.33906L6.16875 6.64688C6.10078 6.78516 5.90156 6.78516 5.83359 6.64688L5.25 5.33906V6.9375C5.25 7.04063 5.16563 7.125 5.0625 7.125H4.6875C4.58437 7.125 4.5 7.04063 4.5 6.9375V4.5C4.5 4.29375 4.66875 4.125 4.875 4.125H5.25C5.39297 4.125 5.52188 4.20469 5.58516 4.33125L6 5.16094L6.41484 4.33125C6.47813 4.20469 6.60938 4.125 6.75 4.125H7.125C7.33125 4.125 7.5 4.29375 7.5 4.5V6.9375ZM8.63203 7.125H8.34375C8.24062 7.125 8.15625 7.04063 8.15625 6.9375V6.5625C8.15625 6.45937 8.24062 6.375 8.34375 6.375H8.63203C8.77266 6.375 8.87578 6.29297 8.87578 6.22031C8.87578 6.18984 8.85703 6.15703 8.82656 6.13125L8.31328 5.69063C8.11406 5.52188 8.00156 5.28047 8.00156 5.03203C8.00156 4.53281 8.44687 4.12734 8.99531 4.12734H9.28125C9.38438 4.12734 9.46875 4.21172 9.46875 4.31484V4.68984C9.46875 4.79297 9.38438 4.87734 9.28125 4.87734H8.99297C8.85234 4.87734 8.74922 4.95937 8.74922 5.03203C8.74922 5.0625 8.76797 5.09531 8.79844 5.12109L9.31172 5.56172C9.51094 5.73047 9.62344 5.97187 9.62344 6.22031C9.62578 6.71953 9.18047 7.125 8.63203 7.125Z" fill="white"/>
</svg>

