<svg width="10" height="12" viewBox="0 0 10 12" fill="none" xmlns="http://www.w3.org/2000/svg">
<path d="M7.35249 5.554C7.27149 4.0605 6.45549 3.2055 5.08549 3.197C4.25949 3.192 3.56899 3.542 3.14599 4.1835L3.89999 4.7C4.21699 4.2195 4.71749 4.12 5.07999 4.1235C5.53149 4.1265 5.87149 4.2575 6.09199 4.5135C6.25199 4.6995 6.35949 4.957 6.41299 5.2815C6.01299 5.2135 5.57999 5.1925 5.11799 5.219C3.81499 5.294 2.97799 6.054 3.03399 7.1095C3.06249 7.645 3.32899 8.106 3.78499 8.407C4.16999 8.6615 4.66699 8.7855 5.18249 8.7575C5.86399 8.72 6.39849 8.46 6.77149 7.985C7.05449 7.624 7.23349 7.156 7.31249 6.567C7.63749 6.763 7.87749 7.0205 8.01099 7.3305C8.23699 7.8575 8.24999 8.7235 7.54349 9.4295C6.92449 10.0475 6.18049 10.3155 5.05599 10.3235C3.80849 10.3145 2.86499 9.914 2.25199 9.1345C1.67699 8.4045 1.38049 7.3495 1.36949 6C1.38049 4.65 1.67749 3.5955 2.25199 2.865C2.86499 2.0855 3.80849 1.6855 5.05599 1.6765C6.31249 1.686 7.27199 2.0875 7.90899 2.8715C8.22149 3.2555 8.45649 3.7385 8.61199 4.3015L9.49499 4.0665C9.30649 3.373 9.01049 2.7755 8.60799 2.28C7.79149 1.275 6.59149 0.7605 5.05299 0.75C3.51749 0.7605 2.33649 1.2775 1.54349 2.2855C0.837987 3.183 0.473487 4.4385 0.461487 6.0035C0.473487 7.5685 0.837987 8.817 1.54349 9.7145C2.33699 10.7225 3.52349 11.2395 5.05849 11.25C6.42399 11.2405 7.38599 10.883 8.17849 10.0915C9.21599 9.055 9.18449 7.7565 8.84299 6.9595C8.58049 6.347 8.05799 5.8565 7.35299 5.5545L7.35249 5.554ZM5.13349 7.8325C4.56249 7.8645 3.96949 7.6085 3.93999 7.0595C3.91849 6.6525 4.22999 6.1985 5.16849 6.1445C5.59265 6.11602 6.01871 6.14529 6.43499 6.2315C6.32699 7.5825 5.69249 7.8015 5.13349 7.8325Z" fill="white"/>
</svg>

