<svg width="8" height="10" viewBox="0 0 8 10" fill="none" xmlns="http://www.w3.org/2000/svg">
<path d="M6.30002 1.91C5.95823 1.51981 5.76987 1.01872 5.77002 0.5H4.22502V6.7C4.2131 7.03551 4.07145 7.35331 3.8299 7.58647C3.58835 7.81963 3.26574 7.94995 2.93002 7.95C2.22002 7.95 1.63002 7.37 1.63002 6.65C1.63002 5.79 2.46002 5.145 3.31502 5.41V3.83C1.59002 3.6 0.0800171 4.94 0.0800171 6.65C0.0800171 8.315 1.46002 9.5 2.92502 9.5C4.49502 9.5 5.77002 8.225 5.77002 6.65V3.505C6.39652 3.95493 7.1487 4.19632 7.92002 4.195V2.65C7.92002 2.65 6.98002 2.695 6.30002 1.91Z" fill="white"/>
</svg>

