<svg width="10" height="10" viewBox="0 0 10 10" fill="none" xmlns="http://www.w3.org/2000/svg">
<path d="M5 0C2.245 0 0 2.245 0 5C0 7.755 2.245 10 5 10C7.755 10 10 7.755 10 5C10 2.245 7.755 0 5 0ZM0.505 5C0.505 4.35 0.645 3.73 0.895 3.17L3.04 9.045C1.54 8.315 0.505 6.78 0.505 5ZM5 9.495C4.56 9.495 4.135 9.43 3.73 9.31L5.08 5.39L6.46 9.175C6.47 9.195 6.48 9.22 6.49 9.235C6.025 9.405 5.525 9.495 5 9.495ZM5.62 2.89C5.89 2.875 6.135 2.845 6.135 2.845C6.375 2.815 6.35 2.46 6.105 2.475C6.105 2.475 5.375 2.53 4.905 2.53C4.465 2.53 3.72 2.475 3.72 2.475C3.48 2.465 3.45 2.835 3.695 2.85C3.695 2.85 3.925 2.88 4.165 2.895L4.865 4.815L3.88 7.765L2.245 2.89C2.515 2.88 2.76 2.85 2.76 2.85C3 2.82 2.975 2.465 2.73 2.48C2.73 2.48 2 2.535 1.53 2.535C1.445 2.535 1.345 2.535 1.24 2.53C2.05 1.31 3.43 0.505 5 0.505C6.17 0.505 7.235 0.95 8.035 1.685C8.015 1.685 7.995 1.68 7.975 1.68C7.535 1.68 7.22 2.065 7.22 2.48C7.22 2.85 7.435 3.165 7.66 3.535C7.83 3.835 8.03 4.22 8.03 4.775C8.03 5.16 7.88 5.605 7.69 6.23L7.24 7.73L5.62 2.89ZM8.945 2.845C9.50661 3.87282 9.64476 5.07928 9.33003 6.20745C9.0153 7.33561 8.27256 8.29633 7.26 8.885L8.635 4.915C8.89 4.275 8.975 3.76 8.975 3.305C8.975 3.14 8.965 2.985 8.945 2.845Z" fill="white"/>
</svg>

